<svg version="1.1" id="Layer_1" xmlns="http://www.w3.org/2000/svg" xmlns:xlink="http://www.w3.org/1999/xlink" x="0px" y="0px"
	 width="100%" viewBox="0 0 350 350" enable-background="new 0 0 350 350" xml:space="preserve">
<path fill="none" opacity="1.000000" stroke="#000000" stroke-linecap="round" stroke-linejoin="round" stroke-width="2.000000"
	d="
M196.000000,3.000000 
	C191.000000,2.833333 185.997910,2.713606 181.000366,2.491601 
	C162.637894,1.675890 144.640503,4.075866 127.014679,9.051983 
	C111.958359,13.302679 97.800400,19.817371 84.530678,28.049448 
	C60.042656,43.240974 40.193653,63.286167 25.664299,88.096214 
	C16.781168,103.264877 10.249681,119.561203 6.327626,136.961151 
	C2.064666,155.873489 0.719818,174.908188 2.667148,193.982941 
	C5.826109,224.925995 16.489714,253.372345 35.067276,278.450165 
	C54.159626,304.222900 78.286560,323.968811 108.011620,336.472382 
	C122.746193,342.670319 138.012650,346.810242 153.984360,348.636719 
	C162.988037,349.666321 171.954208,351.004059 180.996185,350.439056 
	C201.248413,349.173523 221.087112,345.613739 239.983917,337.960297 
	C254.253494,332.180908 267.746277,324.889496 279.983337,315.478333 
	C293.643982,304.972351 305.763367,292.928558 316.024170,279.017822 
	C327.615540,263.303314 336.356018,246.195862 342.006042,227.501831 
	C345.266632,216.713776 347.417816,205.758820 348.691833,194.521744 
	C349.528473,187.142334 349.495850,179.831238 349.442230,172.500427 
	C349.245361,145.586182 342.481110,120.465843 330.217773,96.389084 
	C321.077087,78.443130 309.225098,62.719727 294.834595,49.175743 
	C273.571747,29.163675 248.502975,15.337773 220.025864,7.900954 
	C212.239044,5.867420 204.225327,5.174294 196.500000,3.000000 
"/>
<path fill="none" opacity="1.000000" stroke="#000000" stroke-linecap="round" stroke-linejoin="round" stroke-width="8.000000"
	d="
M233.500000,95.500000 
	C237.867920,95.258438 240.741562,97.654106 242.986084,101.009308 
	C245.591904,104.904572 242.985672,108.279495 241.413925,111.457428 
	C238.570053,117.207436 233.458679,120.279625 227.535675,122.591400 
	C218.441315,126.140968 209.551498,130.235809 203.991104,138.994354 
	C201.747391,142.528564 201.134445,146.028137 204.009918,149.491776 
	C206.670944,152.697067 206.329712,155.741699 204.057968,159.039932 
	C202.974960,160.612289 201.727356,162.405365 202.030502,164.495575 
	C202.838409,170.066116 200.115494,173.848770 196.000000,177.000000 
"/>
<path fill="none" opacity="1.000000" stroke="#000000" stroke-linecap="round" stroke-linejoin="round" stroke-width="4.000000"
	d="
M20.750000,201.500000 
	C24.200014,200.044556 27.959332,201.875473 31.589991,200.194351 
	C33.409649,199.351776 35.620792,199.823441 37.074928,197.547882 
	C39.170845,194.268005 40.936607,190.874771 40.385612,187.016342 
	C39.999222,184.310547 39.312958,181.572006 38.110165,178.949478 
	C36.989594,176.506195 35.706787,175.050629 33.013138,174.441864 
	C27.635479,173.226517 22.298260,174.447006 17.010235,174.707657 
	C12.091557,174.950089 13.976930,179.449677 14.000000,182.500000 
"/>
<path fill="none" opacity="1.000000" stroke="#000000" stroke-linecap="round" stroke-linejoin="round" stroke-width="8.000000"
	d="
M216.500000,104.500000 
	C211.104263,119.641563 199.619568,128.370224 184.924683,132.747147 
	C179.685623,134.307617 173.584961,133.113785 167.966461,131.626709 
	C167.312698,131.453674 165.600677,129.437363 165.000000,132.000000 
"/>
<path fill="none" opacity="1.000000" stroke="#000000" stroke-linecap="round" stroke-linejoin="round" stroke-width="8.000000"
	d="
M178.500000,55.500000 
	C168.348526,53.342587 159.871368,56.442028 151.888931,62.861904 
	C147.312119,66.542809 143.687714,70.721008 140.474701,75.482933 
	C138.184738,78.876831 136.838516,82.408562 138.021225,86.493858 
	C138.706512,88.860985 137.867493,91.166313 137.998260,93.500099 
	C138.128708,95.827927 136.649490,94.965652 135.500000,94.750000 
"/>
<path fill="none" opacity="1.000000" stroke="#000000" stroke-linecap="round" stroke-linejoin="round" stroke-width="2.000000"
	d="
M205.000000,194.000000 
	C203.043076,192.591141 200.787354,192.496017 198.500000,192.496933 
	C183.500000,192.502899 168.494415,192.267487 153.503052,192.627182 
	C148.315186,192.751648 144.083817,192.865067 139.824966,188.678040 
	C134.525696,183.468063 135.524094,177.512466 135.578354,171.500702 
	C135.600967,168.995316 136.105942,166.482574 136.900497,163.968552 
	C139.253952,156.522156 135.070099,145.801437 128.477219,141.535202 
	C127.813820,141.105911 126.836029,141.038422 125.999565,141.020859 
	C120.654015,140.908600 115.691742,138.870468 110.500000,138.000000 
"/>
<path fill="none" opacity="1.000000" stroke="#000000" stroke-linecap="round" stroke-linejoin="round" stroke-width="2.000000"
	d="
M202.000000,196.000000 
	C200.396790,195.198730 198.672638,195.487350 197.000275,195.515884 
	C181.001205,195.788757 164.989456,194.872772 149.001541,196.021469 
	C148.039001,196.090622 147.533249,195.600159 147.000000,195.000000 
"/>
<path fill="none" opacity="1.000000" stroke="#000000" stroke-linecap="round" stroke-linejoin="round" stroke-width="2.000000"
	d="
M202.000000,199.000000 
	C200.396790,199.801270 198.674469,199.486160 196.999985,199.488220 
	C181.000015,199.507919 165.000000,199.500000 149.000000,199.500000 
"/>
<path fill="none" opacity="1.000000" stroke="#000000" stroke-linecap="round" stroke-linejoin="round" stroke-width="3.000000"
	d="
M226.000000,29.499998 
	C225.744690,27.667450 225.489380,25.834902 225.232452,23.990677 
	C221.661865,22.176054 218.406754,19.782860 214.526581,18.424103 
	C210.952454,17.172508 207.594635,18.119881 204.867783,19.702890 
	C202.792648,20.907558 201.956665,23.509504 204.897079,26.116098 
	C208.473343,29.286348 212.804688,31.130629 216.511475,33.985107 
	C218.773270,35.726860 222.317307,36.957397 221.356552,40.460659 
	C220.386459,43.997910 216.572876,44.791172 213.496643,44.871250 
	C207.741089,45.021084 202.691132,42.266922 198.080750,39.131264 
	C196.477341,38.040730 197.589539,35.423374 197.500000,33.500000 
"/>
<path fill="none" opacity="1.000000" stroke="#000000" stroke-linecap="round" stroke-linejoin="round" stroke-width="5.000000"
	d="
M171.000000,205.000000 
	C172.339066,207.666672 170.879761,210.326263 170.921036,213.001221 
	C171.103577,224.831726 170.956100,236.666962 171.033737,248.499771 
	C171.051117,251.150696 170.717361,253.643478 169.500000,256.000000 
"/>
<path fill="none" opacity="1.000000" stroke="#000000" stroke-linecap="round" stroke-linejoin="round" stroke-width="3.000000"
	d="
M328.500000,207.500000 
	C329.993164,207.285553 331.486328,207.071121 332.989319,206.855255 
	C334.630310,202.079193 337.858124,197.575012 336.985474,192.002274 
	C336.748199,190.487244 336.714203,188.751862 335.928802,187.546387 
	C333.541779,183.882599 329.950745,184.028732 327.561249,188.036514 
	C325.277344,191.867264 323.415466,195.960709 321.531036,200.014435 
	C320.365356,202.521973 319.534210,205.492371 316.010162,204.935654 
	C311.931000,204.291260 311.291656,201.023209 310.958771,197.503906 
	C310.379761,191.382431 312.267883,186.027603 315.500000,181.000000 
"/>
<path fill="none" opacity="1.000000" stroke="#000000" stroke-linecap="round" stroke-linejoin="round" stroke-width="2.000000"
	d="
M198.500000,47.500000 
	C189.993301,46.918686 181.614380,44.932701 172.997589,45.460777 
	C165.901184,45.895683 158.884476,46.637905 151.986038,48.446735 
	C150.582535,48.814747 149.000000,48.500000 147.500000,48.500000 
"/>
<path fill="none" opacity="1.000000" stroke="#000000" stroke-linecap="round" stroke-linejoin="round" stroke-width="4.000000"
	d="
M148.500000,205.000000 
	C151.559677,202.800522 154.866501,204.644791 157.983841,204.336594 
	C163.493362,203.791901 168.990753,203.712784 174.496658,203.434128 
	C178.384354,203.237366 179.629883,204.623657 179.573929,208.501068 
	C179.381546,221.831619 179.543930,235.166946 179.460922,248.499756 
	C179.445328,251.003769 179.804565,253.315689 181.000000,255.500000 
"/>
<path fill="none" opacity="1.000000" stroke="#000000" stroke-linecap="round" stroke-linejoin="round" stroke-width="4.000000"
	d="
M179.500000,204.000000 
	C186.625580,202.890472 187.725998,202.830215 187.564316,210.501358 
	C187.318542,222.162842 187.533264,233.833481 187.477127,245.499893 
	C187.462692,248.500626 187.166672,251.500000 187.000000,254.500000 
"/>
<path fill="none" opacity="1.000000" stroke="#000000" stroke-linecap="round" stroke-linejoin="round" stroke-width="3.000000"
	d="
M179.500000,265.500000 
	C173.636200,267.329193 168.324234,267.076904 163.413269,262.595032 
	C160.998154,260.390930 157.618866,260.664795 155.554718,263.539307 
	C151.485397,269.206238 146.751816,274.438477 143.950348,280.978729 
	C143.176575,282.785156 142.402481,284.333344 143.848206,285.760468 
	C145.826630,285.669281 147.663315,285.584656 149.500000,285.500000 
"/>
<path fill="none" opacity="1.000000" stroke="#000000" stroke-linecap="round" stroke-linejoin="round" stroke-width="2.000000"
	d="
M304.500000,153.500000 
	C305.189331,162.331619 307.261658,171.068192 306.480927,179.998337 
	C305.911926,186.506866 305.166656,193.000000 304.500000,199.500000 
"/>
<path fill="none" opacity="1.000000" stroke="#000000" stroke-linecap="round" stroke-linejoin="round" stroke-width="4.000000"
	d="
M164.000000,205.000000 
	C165.107376,213.314514 164.410629,221.668503 164.437180,230.000198 
	C164.458939,236.829636 164.900055,243.666809 164.105667,250.512268 
	C163.829742,252.889862 164.946243,255.536987 167.520416,256.441925 
	C173.346817,258.490112 179.358047,258.898651 184.943527,255.894974 
	C187.314880,254.619751 189.193176,253.844666 191.500000,255.500000 
"/>
<path fill="none" opacity="1.000000" stroke="#000000" stroke-linecap="round" stroke-linejoin="round" stroke-width="11.000000"
	d="
M226.000000,331.000000 
	C229.288574,326.209930 225.839737,321.643097 225.360123,317.014496 
	C225.193680,315.408051 225.270920,313.293640 223.516251,311.978333 
	C220.440781,309.672852 218.135941,310.287750 216.499847,313.999939 
	C214.452103,318.646149 213.310486,323.647919 210.579788,328.049500 
	C209.402267,329.947510 208.491180,331.607727 206.000000,331.500000 
"/>
<path fill="none" opacity="1.000000" stroke="#000000" stroke-linecap="round" stroke-linejoin="round" stroke-width="2.000000"
	d="
M46.500000,156.500000 
	C45.953529,163.489853 45.497299,170.470016 45.377857,177.497925 
	C45.245438,185.289597 46.414616,192.869751 47.500000,200.500000 
"/>
<path fill="none" opacity="1.000000" stroke="#000000" stroke-linecap="round" stroke-linejoin="round" stroke-width="12.000000"
	d="
M115.000000,113.500000 
	C119.238495,121.966248 128.184311,123.529259 135.488846,127.520424 
	C139.551010,129.739975 143.538635,132.103531 147.487854,134.519867 
	C150.679016,136.472397 152.343460,138.497116 149.724625,142.641922 
	C148.459946,144.643509 147.274261,148.723099 151.500000,150.500000 
"/>
<path fill="none" opacity="1.000000" stroke="#000000" stroke-linecap="round" stroke-linejoin="round" stroke-width="4.000000"
	d="
M157.500000,205.000000 
	C157.500000,217.833328 157.509750,230.666687 157.488083,243.499985 
	C157.485260,245.174500 157.801270,246.896790 157.000000,248.500000 
"/>
<path fill="none" opacity="1.000000" stroke="#000000" stroke-linecap="round" stroke-linejoin="round" stroke-width="4.000000"
	d="
M189.500000,181.500000 
	C188.121231,184.727310 185.261124,184.499527 182.500000,184.499756 
	C173.833328,184.500427 165.146957,184.849182 156.507828,184.361359 
	C151.769684,184.093842 148.888885,185.161606 148.000000,190.000000 
"/>
<path fill="none" opacity="1.000000" stroke="#000000" stroke-linecap="round" stroke-linejoin="round" stroke-width="4.000000"
	d="
M203.500000,205.000000 
	C202.666672,204.666672 201.850967,204.277054 200.997070,204.009338 
	C196.172241,202.496506 194.524994,203.602219 194.511856,208.500031 
	C194.476974,221.499939 194.500000,234.500000 194.500000,247.500000 
"/>
<path fill="none" opacity="1.000000" stroke="#000000" stroke-linecap="round" stroke-linejoin="round" stroke-width="8.000000"
	d="
M272.750000,112.000000 
	C267.439240,114.752022 265.300323,122.182579 258.000000,122.000000 
	C247.164230,129.740875 234.212662,134.671494 225.218018,144.695633 
	C220.750977,149.673981 216.871094,156.134949 219.872513,164.048355 
	C220.794220,166.478470 221.195450,169.280869 221.649216,171.974869 
	C223.279572,181.654129 218.727966,190.184052 209.500000,193.500015 
	C204.974884,195.126068 202.376831,201.998840 205.082047,205.943741 
	C206.143875,207.492157 207.979080,208.396866 210.039749,206.544220 
	C211.871765,204.897156 214.087143,203.851395 216.446320,202.870865 
	C221.404083,200.810226 221.534561,200.650665 223.000000,206.500000 
"/>
<path fill="none" opacity="1.000000" stroke="#000000" stroke-linecap="round" stroke-linejoin="round" stroke-width="8.000000"
	d="
M178.500000,57.000000 
	C178.500000,56.666668 178.403931,56.086601 178.516632,56.042717 
	C179.003418,55.853188 179.317764,55.478680 179.963608,55.335674 
	C186.864624,53.807659 192.604614,56.591309 198.529312,59.439011 
	C207.588760,63.793415 212.085205,72.267242 216.663193,80.194504 
	C218.587143,83.526039 219.505096,89.000000 217.000000,93.500000 
"/>
<path fill="none" opacity="1.000000" stroke="#000000" stroke-linecap="round" stroke-linejoin="round" stroke-width="9.000000"
	d="
M46.500000,129.500000 
	C32.545963,136.028809 21.315722,145.604599 13.500000,159.000000 
"/>
<path fill="none" opacity="1.000000" stroke="#000000" stroke-linecap="round" stroke-linejoin="round" stroke-width="3.000000"
	d="
M209.000000,284.500000 
	C210.204575,282.096741 208.811798,279.577515 207.828262,278.115540 
	C203.534882,271.733612 200.282043,264.430206 193.373260,259.852905 
	C189.149078,261.414551 185.929565,265.400513 181.000000,265.500000 
"/>
<path fill="none" opacity="1.000000" stroke="#000000" stroke-linecap="round" stroke-linejoin="round" stroke-width="3.000000"
	d="
M127.000000,23.500000 
	C134.272980,16.714167 146.688568,19.537724 151.990540,26.007753 
	C154.137283,28.627447 152.589615,31.551430 151.868698,33.960712 
	C149.302460,42.537037 137.011292,47.310333 129.500000,43.000000 
"/>
<path fill="none" opacity="1.000000" stroke="#000000" stroke-linecap="round" stroke-linejoin="round" stroke-width="3.000000"
	d="
M147.000000,231.500000 
	C138.314316,230.795288 132.014496,235.087051 127.073837,241.556396 
	C124.457047,244.982819 124.177612,249.000214 126.473083,253.015396 
	C128.719513,256.944794 131.822403,257.111023 136.019958,256.707825 
	C140.541718,256.273468 144.111755,254.110077 147.391800,251.843430 
	C152.707275,248.170273 157.637054,248.291077 163.000000,251.000000 
"/>
<path fill="none" opacity="1.000000" stroke="#000000" stroke-linecap="round" stroke-linejoin="round" stroke-width="4.000000"
	d="
M186.000000,318.500000 
	C185.459564,319.613281 185.046600,320.564087 185.413666,322.021729 
	C186.489487,326.294006 187.032166,330.698029 188.034241,334.992004 
	C189.270691,340.290253 190.379181,340.995514 195.480042,339.906494 
	C196.128784,339.767944 196.816833,339.600677 197.500000,339.500000 
"/>
<path fill="none" opacity="1.000000" stroke="#000000" stroke-linecap="round" stroke-linejoin="round" stroke-width="3.000000"
	d="
M115.000000,44.500000 
	C115.987778,50.845512 112.232323,54.386875 107.520943,57.531376 
	C102.935921,60.591545 98.708069,64.526901 92.500000,62.000000 
"/>
<path fill="none" opacity="1.000000" stroke="#000000" stroke-linecap="round" stroke-linejoin="round" stroke-width="3.000000"
	d="
M171.500000,172.000000 
	C168.137955,174.259369 162.846252,174.347870 162.359314,180.185867 
	C168.789749,181.161560 175.150803,180.932632 181.499374,181.037933 
	C183.015289,181.063080 184.820786,180.223099 186.000000,182.000000 
"/>
<path fill="none" opacity="1.000000" stroke="#000000" stroke-linecap="round" stroke-linejoin="round" stroke-width="3.000000"
	d="
M172.500000,321.500000 
	C168.651550,321.439301 165.089539,322.199158 162.729446,317.125854 
	C160.798157,312.974396 152.084518,312.538727 146.500000,315.000000 
"/>
<path fill="none" opacity="1.000000" stroke="#000000" stroke-linecap="round" stroke-linejoin="round" stroke-width="7.000000"
	d="
M111.250000,259.000000 
	C115.193039,257.004883 117.207672,260.411255 118.329727,262.587769 
	C121.639847,269.008636 124.166672,275.833344 127.000008,282.500000 
"/>
<path fill="none" opacity="1.000000" stroke="#000000" stroke-linecap="round" stroke-linejoin="round" stroke-width="6.000000"
	d="
M149.500000,151.000000 
	C147.889160,155.803894 148.605225,159.841812 151.504608,161.993805 
	C153.818436,163.711166 156.504242,163.525558 157.304779,160.939560 
	C158.059326,158.502029 159.658096,155.915878 159.304321,153.529007 
	C158.910645,150.872833 158.914032,148.931534 161.520477,148.061340 
	C164.481216,147.072861 167.494659,146.990112 170.528168,148.441101 
	C173.024399,149.635086 173.360886,152.289673 175.026550,153.973740 
	C175.690796,154.645309 176.651566,155.023590 177.463531,155.526810 
	C179.601135,153.950851 180.705368,151.654022 182.000000,149.500000 
"/>
<path fill="none" opacity="1.000000" stroke="#000000" stroke-linecap="round" stroke-linejoin="round" stroke-width="3.000000"
	d="
M253.500000,216.500000 
	C251.437729,220.415894 250.597672,224.611588 249.858170,228.975967 
	C248.917374,234.528381 246.783508,239.866714 246.000000,245.500000 
"/>
<path fill="none" opacity="1.000000" stroke="#000000" stroke-linecap="round" stroke-linejoin="round" stroke-width="8.000000"
	d="
M91.500000,139.000000 
	C96.953079,140.715057 102.404160,141.264618 108.029007,139.597900 
	C109.133575,139.270615 109.154373,138.261383 110.227715,137.974686 
	C107.532433,132.404846 103.447311,127.731537 100.123573,122.751221 
	C97.090530,118.206474 90.272728,116.960602 84.997101,114.506241 
	C84.184555,114.128227 83.333336,113.833328 82.500000,113.500000 
"/>
<path fill="none" opacity="1.000000" stroke="#000000" stroke-linecap="round" stroke-linejoin="round" stroke-width="3.000000"
	d="
M334.000000,148.500000 
	C336.885223,153.833984 336.942535,159.744385 336.846802,165.497452 
	C336.791107,168.844498 333.032227,169.028030 330.500000,170.000000 
"/>
<path fill="none" opacity="1.000000" stroke="#000000" stroke-linecap="round" stroke-linejoin="round" stroke-width="3.000000"
	d="
M279.500000,229.000015 
	C273.036926,234.543854 266.573822,240.087692 260.189728,245.563751 
	C255.719421,243.961655 251.364929,244.345215 247.000000,245.000000 
"/>
<path fill="none" opacity="1.000000" stroke="#000000" stroke-linecap="round" stroke-linejoin="round" stroke-width="3.000000"
	d="
M106.000000,37.500000 
	C104.606644,33.733395 102.226891,32.333122 98.505409,34.509247 
	C92.544746,37.994709 84.934593,39.795353 84.000000,48.500000 
"/>
<path fill="none" opacity="1.000000" stroke="#000000" stroke-linecap="round" stroke-linejoin="round" stroke-width="4.000000"
	d="
M111.000000,304.500000 
	C108.131363,303.217590 105.329330,304.220612 103.061676,305.601288 
	C99.228600,307.935150 95.382645,310.302032 91.653564,312.735321 
	C88.586838,314.736450 86.355095,314.674103 83.500000,313.500000 
"/>
<path fill="none" opacity="1.000000" stroke="#000000" stroke-linecap="round" stroke-linejoin="round" stroke-width="10.000000"
	d="
M291.500000,68.750000 
	C290.772247,69.445694 289.292023,69.208916 289.446594,71.004593 
	C289.829254,75.450073 287.515869,79.339211 286.462769,83.490555 
	C285.060394,89.018669 286.706543,93.680031 290.000000,98.000000 
"/>
<path fill="none" opacity="1.000000" stroke="#000000" stroke-linecap="round" stroke-linejoin="round" stroke-width="3.000000"
	d="
M255.500000,319.500000 
	C257.471436,318.768707 259.148834,317.556396 260.478241,315.981628 
	C263.231903,312.719879 262.338135,307.308685 258.471649,305.562775 
	C252.002365,302.641571 245.182312,300.012848 238.044052,302.147308 
	C233.574829,303.483734 229.436890,306.099030 226.000000,309.500000 
"/>
<path fill="none" opacity="1.000000" stroke="#000000" stroke-linecap="round" stroke-linejoin="round" stroke-width="3.000000"
	d="
M185.500000,278.500000 
	C188.801468,281.216309 187.522629,285.220856 187.786652,288.517090 
	C188.116592,292.635986 189.401718,294.749817 193.499817,295.000671 
	C197.314957,291.500000 194.260544,288.000000 193.500000,284.500000 
"/>
<path fill="none" opacity="1.000000" stroke="#000000" stroke-linecap="round" stroke-linejoin="round" stroke-width="2.000000"
	d="
M175.500000,306.500000 
	C168.790802,307.017181 162.161987,305.926880 155.500000,305.500000 
"/>
<path fill="none" opacity="1.000000" stroke="#000000" stroke-linecap="round" stroke-linejoin="round" stroke-width="6.000000"
	d="
M110.000000,221.500000 
	C110.986290,225.145508 107.704803,227.594025 107.405647,230.991699 
	C106.898315,236.753662 102.803055,241.846710 104.000000,248.000000 
"/>
<path fill="none" opacity="1.000000" stroke="#000000" stroke-linecap="round" stroke-linejoin="round" stroke-width="2.000000"
	d="
M195.500000,305.500000 
	C189.495071,305.744629 183.550720,307.079742 177.500000,306.500000 
"/>
<path fill="none" opacity="1.000000" stroke="#000000" stroke-linecap="round" stroke-linejoin="round" stroke-width="9.000000"
	d="
M146.500000,325.000000 
	C151.617203,326.389038 156.458603,328.142761 160.036911,332.469482 
	C163.849472,337.079468 168.978500,339.883698 174.500000,342.000000 
"/>
<path fill="none" opacity="1.000000" stroke="#000000" stroke-linecap="round" stroke-linejoin="round" stroke-width="5.000000"
	d="
M19.500000,153.000000 
	C24.782562,157.181320 31.228445,157.903275 37.512672,158.298569 
	C40.281567,158.472748 40.266293,154.752563 41.000000,152.500000 
"/>
<path fill="none" opacity="1.000000" stroke="#000000" stroke-linecap="round" stroke-linejoin="round" stroke-width="3.000000"
	d="
M69.500000,60.500000 
	C68.171181,59.824268 66.842361,59.148537 65.388878,58.409416 
	C63.107330,60.426575 60.727276,62.384357 58.519966,64.520630 
	C55.950397,67.007507 55.685722,71.808159 58.035736,74.468430 
	C59.510532,76.137924 61.208401,77.675285 63.022572,78.968330 
	C69.386574,83.504265 71.004982,87.953918 65.500000,95.500000 
"/>
<path fill="none" opacity="1.000000" stroke="#000000" stroke-linecap="round" stroke-linejoin="round" stroke-width="3.000000"
	d="
M284.500000,196.500000 
	C281.772003,201.395081 279.287384,206.420547 276.038452,211.027115 
	C274.070984,213.816681 274.774414,217.356018 274.000000,220.500000 
"/>
<path fill="none" opacity="1.000000" stroke="#000000" stroke-linecap="round" stroke-linejoin="round" stroke-width="4.000000"
	d="
M193.500000,148.500000 
	C191.132507,148.594223 189.222794,150.405960 186.456635,149.661026 
	C184.192184,149.051163 182.049622,149.621185 180.879364,146.545914 
	C179.454178,142.800766 175.647278,143.805801 172.510696,143.414276 
	C169.426682,143.029297 169.637970,145.610062 168.500000,147.000000 
"/>
<path fill="none" opacity="1.000000" stroke="#000000" stroke-linecap="round" stroke-linejoin="round" stroke-width="11.000000"
	d="
M233.500000,52.500000 
	C234.965866,52.301884 235.870117,53.362846 237.035522,53.926544 
	C240.808899,55.751698 245.448624,54.100479 247.500488,50.500282 
	C248.831192,48.165447 250.097076,45.790100 251.514420,43.508957 
	C254.501312,38.701721 253.170044,32.974045 247.950516,31.140898 
	C244.644974,29.979958 240.493820,26.351845 237.500000,32.000000 
"/>
<path fill="none" opacity="1.000000" stroke="#000000" stroke-linecap="round" stroke-linejoin="round" stroke-width="2.000000"
	d="
M219.500000,241.000000 
	C223.792923,244.668030 222.309891,249.536179 221.871368,253.987335 
	C221.649551,256.238983 219.612427,257.921051 217.008423,257.453156 
	C213.623917,256.844971 209.873535,256.752930 208.000000,253.000000 
"/>
<path fill="none" opacity="1.000000" stroke="#000000" stroke-linecap="round" stroke-linejoin="round" stroke-width="6.000000"
	d="
M62.500000,218.500000 
	C68.209358,221.671005 73.926155,224.830322 79.000000,229.000000 
"/>
<path fill="none" opacity="1.000000" stroke="#000000" stroke-linecap="round" stroke-linejoin="round" stroke-width="11.000000"
	d="
M295.500000,107.500000 
	C296.513824,114.629837 301.299103,117.402489 307.505371,114.511566 
	C310.344208,113.189232 313.404266,112.379913 316.015381,110.521622 
	C318.946869,108.435349 321.281067,109.720055 323.524261,111.975876 
	C326.181519,114.648117 327.119446,118.054680 327.959625,121.509819 
	C328.201294,122.503578 327.709351,123.801315 329.500000,123.500000 
"/>
<path fill="none" opacity="1.000000" stroke="#000000" stroke-linecap="round" stroke-linejoin="round" stroke-width="3.000000"
	d="
M271.000000,227.500000 
	C266.309357,232.895996 260.878967,237.654709 257.000000,243.750000 
"/>
<path fill="none" opacity="1.000000" stroke="#000000" stroke-linecap="round" stroke-linejoin="round" stroke-width="3.000000"
	d="
M56.500000,73.500000 
	C50.783146,73.500000 45.771114,77.855942 43.873333,83.457085 
	C42.906116,86.311722 45.726227,86.676178 46.000000,88.500000 
"/>
<path fill="none" opacity="1.000000" stroke="#000000" stroke-linecap="round" stroke-linejoin="round" stroke-width="2.000000"
	d="
M166.500000,278.500000 
	C165.500000,284.000000 164.306412,289.477936 163.674789,295.019928 
	C163.558273,296.042236 163.055435,299.045746 165.999649,298.983368 
	C168.903671,298.921844 171.156128,297.508789 172.424927,294.962585 
	C172.890640,294.028015 172.500000,292.666656 172.500000,291.500000 
"/>
<path fill="none" opacity="1.000000" stroke="#000000" stroke-linecap="round" stroke-linejoin="round" stroke-width="3.000000"
	d="
M268.500000,50.500000 
	C270.661163,47.467770 269.960114,45.291016 267.067291,42.917969 
	C263.067596,39.636921 259.336761,36.651875 254.000000,40.000000 
"/>
<path fill="none" opacity="1.000000" stroke="#000000" stroke-linecap="round" stroke-linejoin="round" stroke-width="9.000000"
	d="
M137.500000,95.500000 
	C137.147583,105.035728 141.688034,113.314484 147.889679,119.080917 
	C152.534180,123.399498 157.188766,129.374939 164.500000,130.500000 
"/>
<path fill="none" opacity="1.000000" stroke="#000000" stroke-linecap="round" stroke-linejoin="round" stroke-width="7.000000"
	d="
M129.000000,198.750000 
	C134.129837,196.379654 137.061264,200.675903 139.798874,203.216705 
	C142.056824,205.312271 144.037781,205.435120 146.500000,205.500000 
"/>
<path fill="none" opacity="1.000000" stroke="#000000" stroke-linecap="round" stroke-linejoin="round" stroke-width="4.000000"
	d="
M23.500000,125.000000 
	C28.806969,126.231728 34.741898,125.516785 39.000000,130.000000 
"/>
<path fill="none" opacity="1.000000" stroke="#000000" stroke-linecap="round" stroke-linejoin="round" stroke-width="6.000000"
	d="
M218.500000,240.500000 
	C215.166290,238.833710 214.180038,234.852798 211.025925,232.956863 
	C209.868088,232.260895 208.931427,231.407822 207.533752,230.905975 
	C201.040115,228.574371 200.732147,224.600418 206.799728,219.760941 
	C207.648560,221.285828 208.595932,222.661072 208.500000,224.500000 
"/>
<path fill="none" opacity="1.000000" stroke="#000000" stroke-linecap="round" stroke-linejoin="round" stroke-width="3.000000"
	d="
M307.500000,93.500000 
	C310.926575,93.220268 314.258911,92.419350 316.592896,96.446152 
	C318.953369,100.518616 320.842651,104.351845 318.500000,109.000000 
"/>
<path fill="none" opacity="1.000000" stroke="#000000" stroke-linecap="round" stroke-linejoin="round" stroke-width="8.000000"
	d="
M65.500000,230.000000 
	C71.758720,233.636597 78.505463,231.544067 84.992157,231.295364 
	C87.540062,231.197678 90.000000,231.989883 92.500000,231.500000 
"/>
<path fill="none" opacity="1.000000" stroke="#000000" stroke-linecap="round" stroke-linejoin="round" stroke-width="3.000000"
	d="
M312.000000,151.000000 
	C309.663971,155.592697 311.872284,160.020218 312.507874,164.498886 
	C313.242401,169.675293 316.374634,172.950684 321.000000,175.000000 
"/>
<path fill="none" opacity="1.000000" stroke="#000000" stroke-linecap="round" stroke-linejoin="round" stroke-width="2.000000"
	d="
M266.000000,223.000000 
	C265.754944,223.986938 266.367737,225.002335 265.531494,226.025742 
	C262.452179,229.794266 259.500000,233.666672 256.500000,237.500000 
"/>
<path fill="none" opacity="1.000000" stroke="#000000" stroke-linecap="round" stroke-linejoin="round" stroke-width="5.000000"
	d="
M286.500000,214.500000 
	C283.918915,219.286194 279.253632,221.781326 274.561035,220.728058 
	C268.361786,219.336670 264.834351,222.966156 260.500000,225.500000 
"/>
<path fill="none" opacity="1.000000" stroke="#000000" stroke-linecap="round" stroke-linejoin="round" stroke-width="4.000000"
	d="
M305.500000,250.500000 
	C303.833313,255.166656 302.166656,259.833344 300.500000,264.500000 
"/>
<path fill="none" opacity="1.000000" stroke="#000000" stroke-linecap="round" stroke-linejoin="round" stroke-width="10.000000"
	d="
M74.500000,186.500000 
	C75.890266,190.942032 74.295685,196.052597 77.906944,200.083374 
	C79.110367,201.426605 77.254082,203.297791 76.384727,204.409897 
	C75.185524,205.943970 73.182060,206.849350 71.523109,208.024033 
	C71.802345,208.362610 72.081581,208.701187 72.360825,209.039764 
	C73.073883,211.526520 73.786942,214.013260 74.500000,216.500000 
"/>
<path fill="none" opacity="1.000000" stroke="#000000" stroke-linecap="round" stroke-linejoin="round" stroke-width="3.000000"
	d="
M97.500000,311.000000 
	C101.606903,314.234009 105.924988,316.876709 111.500000,316.000000 
"/>
<path fill="none" opacity="1.000000" stroke="#000000" stroke-linecap="round" stroke-linejoin="round" stroke-width="7.000000"
	d="
M134.500000,245.500000 
	C127.596443,251.455994 118.134270,249.736145 110.500000,253.500000 
"/>
<path fill="none" opacity="1.000000" stroke="#000000" stroke-linecap="round" stroke-linejoin="round" stroke-width="2.000000"
	d="
M156.500000,271.500000 
	C154.666656,275.333344 152.810501,279.156036 151.016251,283.007568 
	C150.574020,283.956848 150.055481,284.997406 150.046112,286.000427 
	C149.994156,291.561554 150.582535,291.946503 157.000000,291.000000 
"/>
<path fill="none" opacity="1.000000" stroke="#000000" stroke-linecap="round" stroke-linejoin="round" stroke-width="11.000000"
	d="
M36.500000,91.500000 
	C37.459663,93.156586 35.960701,94.203896 35.491123,95.496773 
	C34.053848,99.453926 35.816231,104.173935 39.504818,105.990211 
	C41.644981,107.044029 43.854996,107.955917 45.995998,109.008141 
	C52.863819,112.383461 56.497776,110.856895 59.000000,103.500000 
"/>
<path fill="none" opacity="1.000000" stroke="#000000" stroke-linecap="round" stroke-linejoin="round" stroke-width="6.000000"
	d="
M40.500000,266.500000 
	C42.833332,266.500000 45.170208,266.580200 47.499004,266.477417 
	C49.833115,266.374390 52.159161,266.088715 55.084164,265.830475 
	C53.491169,270.928131 51.995586,275.714081 50.500008,280.500000 
"/>
<path fill="none" opacity="1.000000" stroke="#000000" stroke-linecap="round" stroke-linejoin="round" stroke-width="4.000000"
	d="
M314.500000,264.500000 
	C312.002289,264.299194 309.484894,264.272095 306.992584,264.134033 
	C299.525909,263.720459 294.134918,268.509308 288.500000,272.500000 
"/>
<path fill="none" opacity="1.000000" stroke="#000000" stroke-linecap="round" stroke-linejoin="round" stroke-width="6.000000"
	d="
M148.000000,196.500000 
	C147.002762,202.298782 147.460892,207.934006 149.434067,213.523270 
	C150.212814,215.729141 148.406815,217.580048 147.500000,219.500000 
"/>
<path fill="none" opacity="1.000000" stroke="#000000" stroke-linecap="round" stroke-linejoin="round" stroke-width="5.000000"
	d="
M300.500000,265.000000 
	C301.833344,269.500000 303.166656,274.000000 304.500000,278.500000 
"/>
<path fill="none" opacity="1.000000" stroke="#000000" stroke-linecap="round" stroke-linejoin="round" stroke-width="3.000000"
	d="
M323.000000,146.000000 
	C322.351410,150.627625 324.706390,154.921509 324.500000,159.500000 
"/>
<path fill="none" opacity="1.000000" stroke="#000000" stroke-linecap="round" stroke-linejoin="round" stroke-width="2.000000"
	d="
M280.500000,253.500000 
	C277.253143,258.188568 274.348022,263.166290 269.500000,266.500000 
"/>
<path fill="none" opacity="1.000000" stroke="#000000" stroke-linecap="round" stroke-linejoin="round" stroke-width="6.000000"
	d="
M250.000000,134.500000 
	C249.532608,137.365936 247.170410,138.606720 244.957428,139.377838 
	C242.943207,140.079742 242.869537,141.687302 241.920822,142.940033 
	C240.445969,144.887466 242.738586,144.297379 243.000000,145.000000 
"/>
<path fill="none" opacity="1.000000" stroke="#000000" stroke-linecap="round" stroke-linejoin="round" stroke-width="11.000000"
	d="
M73.000000,50.000000 
	C77.875557,46.655788 82.929588,47.401859 85.979080,52.013832 
	C87.048332,53.630924 88.115570,55.252434 89.095863,56.944462 
	C93.603706,64.725189 93.253021,66.611931 85.500000,71.500000 
"/>
<path fill="none" opacity="1.000000" stroke="#000000" stroke-linecap="round" stroke-linejoin="round" stroke-width="4.000000"
	d="
M49.999996,252.500000 
	C51.166664,256.166656 52.327965,259.835052 53.502975,263.499054 
	C53.904587,264.751373 54.180027,266.153290 56.000000,266.000000 
"/>
<path fill="none" opacity="1.000000" stroke="#000000" stroke-linecap="round" stroke-linejoin="round" stroke-width="10.000000"
	d="
M178.000000,318.000000 
	C184.422379,317.432617 190.947021,316.160553 196.030243,321.973541 
	C198.352371,324.629089 200.879425,327.138397 203.538788,329.455475 
	C205.605408,331.256134 206.413925,333.459686 206.750000,336.000000 
"/>
<path fill="none" opacity="1.000000" stroke="#000000" stroke-linecap="round" stroke-linejoin="round" stroke-width="3.000000"
	d="
M202.500000,237.000000 
	C201.053650,239.296616 200.633179,241.274704 203.464600,243.056274 
	C205.448486,244.304565 207.100891,246.079681 208.810730,247.542023 
	C211.261215,247.427887 213.477646,246.467728 212.355026,244.067810 
	C210.942200,241.047424 212.669968,240.201324 214.500000,239.000000 
"/>
<path fill="none" opacity="1.000000" stroke="#000000" stroke-linecap="round" stroke-linejoin="round" stroke-width="3.000000"
	d="
M260.500000,207.500000 
	C261.953003,213.675476 257.268433,218.322906 256.360718,223.977646 
	C255.471344,229.518280 253.601852,234.974228 250.871140,239.928986 
	C250.063004,241.395325 250.201385,242.633682 250.000000,244.000000 
"/>
<path fill="none" opacity="1.000000" stroke="#000000" stroke-linecap="round" stroke-linejoin="round" stroke-width="3.000000"
	d="
M197.500000,273.500000 
	C199.854904,277.496307 200.664185,282.234528 203.208160,285.607300 
	C202.366364,289.777283 200.409500,292.182495 196.000000,290.500000 
"/>
<path fill="none" opacity="1.000000" stroke="#000000" stroke-linecap="round" stroke-linejoin="round" stroke-width="4.000000"
	d="
M287.500000,68.000000 
	C284.866913,64.429298 280.976349,66.913025 279.162781,67.824043 
	C274.990906,69.919708 270.496521,68.612854 266.459045,70.407875 
	C264.566986,71.249046 263.275452,69.237534 262.000000,68.000000 
"/>
<path fill="none" opacity="1.000000" stroke="#000000" stroke-linecap="round" stroke-linejoin="round" stroke-width="3.000000"
	d="
M239.500000,261.000000 
	C238.838791,265.537231 236.061310,269.104492 234.000000,273.000000 
"/>
<path fill="none" opacity="1.000000" stroke="#000000" stroke-linecap="round" stroke-linejoin="round" stroke-width="3.000000"
	d="
M181.000000,284.500000 
	C179.808807,287.576355 179.611252,290.865204 180.109833,293.982422 
	C180.651718,297.370300 178.444565,299.177826 177.726395,301.762909 
	C174.398743,301.101257 173.853912,298.646088 172.500000,297.000000 
"/>
<path fill="none" opacity="1.000000" stroke="#000000" stroke-linecap="round" stroke-linejoin="round" stroke-width="3.000000"
	d="
M50.000000,111.500000 
	C52.967644,115.500000 50.766232,119.500000 50.000000,123.500000 
"/>
<path fill="none" opacity="1.000000" stroke="#000000" stroke-linecap="round" stroke-linejoin="round" stroke-width="8.000000"
	d="
M104.000000,218.500000 
	C102.642609,223.194809 100.480446,227.156433 95.516235,229.042725 
	C92.360420,230.241837 92.450653,232.931015 93.543663,235.481293 
	C94.878944,238.596817 96.292618,241.732224 99.000000,244.000000 
"/>
<path fill="none" opacity="1.000000" stroke="#000000" stroke-linecap="round" stroke-linejoin="round" stroke-width="3.000000"
	d="
M176.500000,121.500000 
	C176.839172,120.668983 177.178345,119.837975 177.586884,118.837036 
	C174.538620,116.942078 170.953156,116.229935 168.366455,113.110748 
	C163.703171,107.487450 162.332336,107.725403 156.500000,112.500000 
"/>
<path fill="none" opacity="1.000000" stroke="#000000" stroke-linecap="round" stroke-linejoin="round" stroke-width="3.000000"
	d="
M275.000000,70.000000 
	C277.974854,73.884750 280.314423,78.436523 285.500000,80.000000 
"/>
<path fill="none" opacity="1.000000" stroke="#000000" stroke-linecap="round" stroke-linejoin="round" stroke-width="4.000000"
	d="
M269.000000,281.000000 
	C262.514496,283.604675 265.510315,290.066315 263.587158,294.537476 
	C262.243317,297.661804 262.757477,301.397705 261.000000,304.500000 
"/>
<path fill="none" opacity="1.000000" stroke="#000000" stroke-linecap="round" stroke-linejoin="round" stroke-width="3.000000"
	d="
M303.500000,117.000000 
	C301.180756,120.941414 302.725006,124.714851 304.000000,128.500000 
"/>
<path fill="none" opacity="1.000000" stroke="#000000" stroke-linecap="round" stroke-linejoin="round" stroke-width="3.000000"
	d="
M79.500000,78.500000 
	C77.506859,83.210068 73.484344,84.045868 69.000000,84.000000 
"/>
<path fill="none" opacity="1.000000" stroke="#000000" stroke-linecap="round" stroke-linejoin="round" stroke-width="9.000000"
	d="
M111.500000,258.000000 
	C111.562836,253.624771 107.395775,252.069626 105.396980,249.068619 
	C104.388382,247.554276 91.243271,248.892349 90.600182,250.539124 
	C88.937126,254.797729 84.712166,256.803070 82.500000,260.500000 
"/>
<path fill="none" opacity="1.000000" stroke="#000000" stroke-linecap="round" stroke-linejoin="round" stroke-width="6.000000"
	d="
M89.500000,237.000000 
	C84.427513,240.858612 78.367973,240.760056 72.498360,240.811066 
	C71.176193,240.822571 69.833336,241.256058 68.500000,241.000000 
"/>
<path fill="none" opacity="1.000000" stroke="#000000" stroke-linecap="round" stroke-linejoin="round" stroke-width="9.000000"
	d="
M110.500000,190.000000 
	C113.946472,192.823944 113.638550,198.458008 118.025085,200.444611 
	C122.102859,202.291397 121.800278,207.368790 125.465240,209.558182 
	C131.712952,213.290497 138.591171,215.643143 145.008774,218.983139 
	C148.831024,220.972366 150.751678,223.863632 149.419571,227.470291 
	C146.645081,234.982224 148.011627,242.006943 151.000000,249.000000 
"/>
<path fill="none" opacity="1.000000" stroke="#000000" stroke-linecap="round" stroke-linejoin="round" stroke-width="2.000000"
	d="
M141.500000,333.000000 
	C138.175751,335.339966 134.482529,336.056458 130.500000,335.500000 
"/>
<path fill="none" opacity="1.000000" stroke="#000000" stroke-linecap="round" stroke-linejoin="round" stroke-width="10.000000"
	d="
M113.500000,298.500000 
	C109.603699,308.113312 112.419029,317.307129 115.250000,326.500000 
"/>
<path fill="none" opacity="1.000000" stroke="#000000" stroke-linecap="round" stroke-linejoin="round" stroke-width="3.000000"
	d="
M173.500000,153.000000 
	C169.833328,152.833328 166.166672,152.666656 162.500000,152.500000 
"/>
<path fill="none" opacity="1.000000" stroke="#000000" stroke-linecap="round" stroke-linejoin="round" stroke-width="7.000000"
	d="
M88.500000,200.500000 
	C86.333328,205.666672 84.107063,210.809402 82.019775,216.007935 
	C80.483589,219.833939 81.568024,222.016724 85.500000,223.500000 
"/>
<path fill="none" opacity="1.000000" stroke="#000000" stroke-linecap="round" stroke-linejoin="round" stroke-width="5.000000"
	d="
M288.500000,255.500000 
	C292.000000,258.000000 295.500000,260.500000 299.000000,263.000000 
"/>
<path fill="none" opacity="1.000000" stroke="#000000" stroke-linecap="round" stroke-linejoin="round" stroke-width="3.000000"
	d="
M228.000000,328.000000 
	C231.105606,330.489777 234.441254,332.013428 238.500000,330.500000 
"/>
<path fill="none" opacity="1.000000" stroke="#000000" stroke-linecap="round" stroke-linejoin="round" stroke-width="4.000000"
	d="
M119.500000,107.000000 
	C116.000000,107.059326 112.500000,105.431633 109.000000,107.000000 
"/>
<path fill="none" opacity="1.000000" stroke="#000000" stroke-linecap="round" stroke-linejoin="round" stroke-width="6.000000"
	d="
M223.000000,251.500000 
	C226.353699,251.864258 229.285355,254.409561 233.036392,253.104614 
	C234.327988,252.655273 235.859665,253.436020 236.039841,255.496521 
	C236.348999,259.031891 238.571915,260.288025 241.988266,260.620514 
	C243.765625,260.793518 245.644043,262.019806 245.500000,264.500000 
"/>
<path fill="none" opacity="1.000000" stroke="#000000" stroke-linecap="round" stroke-linejoin="round" stroke-width="6.000000"
	d="
M216.000000,93.500000 
	C219.032928,96.015732 217.746964,99.190239 216.888977,101.965683 
	C216.194885,104.210922 216.613022,104.355499 218.500000,103.750000 
"/>
<path fill="none" opacity="1.000000" stroke="#000000" stroke-linecap="round" stroke-linejoin="round" stroke-width="10.000000"
	d="
M236.499969,259.499969 
	C233.091904,262.593475 229.683823,265.687012 226.805084,268.300049 
	C227.659042,273.172394 228.311691,276.572845 232.973633,277.617615 
	C236.051666,278.307404 234.297638,282.059967 235.750000,284.000000 
"/>
<path fill="none" opacity="1.000000" stroke="#000000" stroke-linecap="round" stroke-linejoin="round" stroke-width="3.000000"
	d="
M113.500000,324.500000 
	C110.082375,326.019196 106.805573,324.721893 103.500000,324.000000 
"/>
<path fill="none" opacity="1.000000" stroke="#000000" stroke-linecap="round" stroke-linejoin="round" stroke-width="3.000000"
	d="
M274.500000,308.500000 
	C270.595703,309.765564 266.746918,311.475281 262.500000,310.000000 
"/>
<path fill="none" opacity="1.000000" stroke="#000000" stroke-linecap="round" stroke-linejoin="round" stroke-width="2.000000"
	d="
M333.500000,133.500000 
	C333.899567,136.991104 333.161530,140.182861 331.000000,143.000000 
"/>
<path fill="none" opacity="1.000000" stroke="#000000" stroke-linecap="round" stroke-linejoin="round" stroke-width="3.000000"
	d="
M250.500000,292.500000 
	C248.395416,295.013245 244.573456,296.617310 246.000000,301.000000 
"/>
<path fill="none" opacity="1.000000" stroke="#000000" stroke-linecap="round" stroke-linejoin="round" stroke-width="2.000000"
	d="
M155.500000,96.500000 
	C152.298874,96.261627 149.366577,97.232933 146.500000,98.500000 
"/>
<path fill="none" opacity="1.000000" stroke="#000000" stroke-linecap="round" stroke-linejoin="round" stroke-width="3.000000"
	d="
M190.000000,151.500000 
	C191.634964,153.902115 190.106705,156.509308 190.386154,159.012711 
	C190.439240,159.488083 189.604218,160.964478 187.962418,160.068893 
	C186.008636,159.003098 183.589050,158.821915 182.000000,157.000000 
"/>
<path fill="none" opacity="1.000000" stroke="#000000" stroke-linecap="round" stroke-linejoin="round" stroke-width="3.000000"
	d="
M66.500000,257.500000 
	C63.425694,259.351562 60.517761,261.420654 58.000000,264.000000 
"/>
<path fill="none" opacity="1.000000" stroke="#000000" stroke-linecap="round" stroke-linejoin="round" stroke-width="3.000000"
	d="
M189.000000,295.500000 
	C187.064606,301.683502 183.761978,296.929169 181.000000,296.500000 
"/>
<path fill="none" opacity="1.000000" stroke="#000000" stroke-linecap="round" stroke-linejoin="round" stroke-width="3.000000"
	d="
M35.500000,104.500000 
	C31.499016,105.139740 28.806612,107.490700 27.000000,111.000000 
"/>
<path fill="none" opacity="1.000000" stroke="#000000" stroke-linecap="round" stroke-linejoin="round" stroke-width="2.000000"
	d="
M157.500000,105.500000 
	C154.702805,107.325958 151.315170,108.364670 149.500000,111.500000 
"/>
<path fill="none" opacity="1.000000" stroke="#000000" stroke-linecap="round" stroke-linejoin="round" stroke-width="4.000000"
	d="
M105.500000,104.750000 
	C107.986237,105.117561 108.302673,106.760910 108.608643,108.985054 
	C109.035812,112.090332 111.657753,112.930038 114.500000,113.000000 
	C114.500000,112.500000 114.500000,112.000000 114.500000,111.500000 
"/>
<path fill="none" opacity="1.000000" stroke="#000000" stroke-linecap="round" stroke-linejoin="round" stroke-width="3.000000"
	d="
M122.500000,26.000000 
	C119.741058,23.497139 116.562157,24.773903 113.500000,25.000000 
"/>
<path fill="none" opacity="1.000000" stroke="#000000" stroke-linecap="round" stroke-linejoin="round" stroke-width="6.000000"
	d="
M259.500000,162.000000 
	C258.133667,162.201385 256.636139,161.455658 255.472443,162.978943 
	C253.156418,166.010529 249.869171,165.995697 246.500000,165.500000 
"/>
<path fill="none" opacity="1.000000" stroke="#000000" stroke-linecap="round" stroke-linejoin="round" stroke-width="3.000000"
	d="
M186.500000,62.500000 
	C184.062302,64.825905 185.873993,68.651604 183.500000,71.000000 
"/>
<path fill="none" opacity="1.000000" stroke="#000000" stroke-linecap="round" stroke-linejoin="round" stroke-width="4.000000"
	d="
M277.500000,194.500000 
	C273.906067,199.883331 271.626831,206.107651 266.583923,210.594330 
	C264.979340,212.021957 263.785034,213.403412 261.500000,213.000000 
"/>
<path fill="none" opacity="1.000000" stroke="#000000" stroke-linecap="round" stroke-linejoin="round" stroke-width="2.000000"
	d="
M185.000000,265.500000 
	C187.685196,267.745361 188.367630,271.617981 191.500000,273.500000 
"/>
<path fill="none" opacity="1.000000" stroke="#000000" stroke-linecap="round" stroke-linejoin="round" stroke-width="4.000000"
	d="
M190.000000,183.250000 
	C193.531204,183.404587 196.882904,184.910950 200.503021,184.528610 
	C202.979065,184.267090 203.477859,185.926605 203.525909,187.999405 
	C203.564606,189.669037 203.833328,191.333328 204.000000,193.000000 
"/>
<path fill="none" opacity="1.000000" stroke="#000000" stroke-linecap="round" stroke-linejoin="round" stroke-width="7.000000"
	d="
M76.000000,249.000000 
	C80.966660,247.400131 85.854774,246.939087 90.500000,250.000000 
"/>
<path fill="none" opacity="1.000000" stroke="#000000" stroke-linecap="round" stroke-linejoin="round" stroke-width="3.000000"
	d="
M14.500000,190.500000 
	C15.483609,193.339111 14.489880,196.876114 17.500000,199.000000 
"/>
<path fill="none" opacity="1.000000" stroke="#000000" stroke-linecap="round" stroke-linejoin="round" stroke-width="5.000000"
	d="
M105.500000,157.500000 
	C106.742073,159.554947 108.560287,161.343964 108.514786,164.000000 
	C105.500000,164.000000 102.500000,164.000000 99.500000,164.000000 
"/>
<path fill="none" opacity="1.000000" stroke="#000000" stroke-linecap="round" stroke-linejoin="round" stroke-width="3.000000"
	d="
M145.000000,335.500000 
	C146.720810,338.670898 149.740341,337.945648 152.500000,338.000000 
"/>
<path fill="none" opacity="1.000000" stroke="#000000" stroke-linecap="round" stroke-linejoin="round" stroke-width="4.000000"
	d="
M177.500000,156.000000 
	C176.148041,163.167542 178.681549,166.277954 185.999420,166.517761 
	C187.253540,166.558868 188.500000,166.833344 189.750000,167.000000 
"/>
<path fill="none" opacity="1.000000" stroke="#000000" stroke-linecap="round" stroke-linejoin="round" stroke-width="6.000000"
	d="
M108.500000,140.000000 
	C108.581841,144.199875 106.328316,147.980545 107.248055,152.550705 
	C108.035370,156.462845 104.838348,157.772980 98.500000,157.000000 
"/>
<path fill="none" opacity="1.000000" stroke="#000000" stroke-linecap="round" stroke-linejoin="round" stroke-width="3.000000"
	d="
M143.000000,314.000000 
	C140.705765,311.524078 137.652878,310.890625 134.500000,310.500000 
"/>
<path fill="none" opacity="1.000000" stroke="#000000" stroke-linecap="round" stroke-linejoin="round" stroke-width="3.000000"
	d="
M159.500000,74.500000 
	C162.912750,77.676781 165.323669,77.675529 169.024033,75.033661 
	C173.657410,71.725670 174.626266,67.588692 172.500000,62.500000 
"/>
<path fill="none" opacity="1.000000" stroke="#000000" stroke-linecap="round" stroke-linejoin="round" stroke-width="3.000000"
	d="
M204.000000,230.500000 
	C201.679947,235.775665 201.678650,235.778473 206.500671,237.998550 
	C208.329926,238.840744 210.166656,239.666672 212.000000,240.500000 
"/>
<path fill="none" opacity="1.000000" stroke="#000000" stroke-linecap="round" stroke-linejoin="round" stroke-width="3.000000"
	d="
M277.000000,83.500000 
	C278.751495,86.626961 281.337189,88.270927 285.000000,88.000000 
"/>
<path fill="none" opacity="1.000000" stroke="#000000" stroke-linecap="round" stroke-linejoin="round" stroke-width="3.000000"
	d="
M189.000000,113.000000 
	C190.735168,115.873962 193.151184,118.157860 195.500000,120.500000 
"/>
<path fill="none" opacity="1.000000" stroke="#000000" stroke-linecap="round" stroke-linejoin="round" stroke-width="8.000000"
	d="
M253.000000,184.000000 
	C247.810394,182.326813 247.968277,182.341644 247.437286,187.994110 
	C247.146225,191.092422 244.591461,192.997345 242.469864,194.967545 
	C241.322769,196.032776 235.607574,203.742813 234.993622,205.497772 
	C233.763260,209.014633 230.357681,211.081787 227.798706,212.677109 
	C224.230515,214.901627 219.670456,216.314163 215.442017,217.233231 
	C212.576584,217.856033 210.124741,219.032516 207.500000,220.000000 
"/>
<path fill="none" opacity="1.000000" stroke="#000000" stroke-linecap="round" stroke-linejoin="round" stroke-width="4.000000"
	d="
M200.000000,248.500000 
	C201.166672,249.333344 202.311493,250.199448 203.503937,250.994095 
	C207.741898,253.818268 208.815628,253.275253 209.500000,248.000000 
"/>
<path fill="none" opacity="1.000000" stroke="#000000" stroke-linecap="round" stroke-linejoin="round" stroke-width="3.000000"
	d="
M242.000000,267.000000 
	C240.586517,268.376587 239.820923,269.964661 239.407913,271.981140 
	C238.834290,274.781830 237.442169,277.314484 234.500000,278.500000 
"/>
<path fill="none" opacity="1.000000" stroke="#000000" stroke-linecap="round" stroke-linejoin="round" stroke-width="2.000000"
	d="
M167.000000,266.500000 
	C163.774002,269.470337 162.643585,273.488464 161.500000,277.500000 
"/>
<path fill="none" opacity="1.000000" stroke="#000000" stroke-linecap="round" stroke-linejoin="round" stroke-width="3.000000"
	d="
M196.500000,68.500000 
	C193.940811,70.467712 192.648315,73.364319 191.000000,76.000000 
"/>
<path fill="none" opacity="1.000000" stroke="#000000" stroke-linecap="round" stroke-linejoin="round" stroke-width="3.000000"
	d="
M152.500000,92.000000 
	C154.034592,92.177666 155.778198,91.414795 157.173950,93.223274 
	C155.622559,95.324509 156.096786,98.019356 155.984299,100.415306 
	C154.013718,101.041824 152.506851,101.520912 151.000000,101.999992 
"/>
<path fill="none" opacity="1.000000" stroke="#000000" stroke-linecap="round" stroke-linejoin="round" stroke-width="4.000000"
	d="
M175.000000,164.000000 
	C171.703369,167.297836 172.128662,171.404785 172.500000,175.500000 
"/>
<path fill="none" opacity="1.000000" stroke="#000000" stroke-linecap="round" stroke-linejoin="round" stroke-width="8.000000"
	d="
M271.500000,125.000000 
	C268.288879,126.756546 264.369934,127.255287 261.990753,130.493210 
	C259.200500,134.290604 257.675507,138.688263 256.057159,143.021347 
	C255.526688,144.441635 255.769852,145.594223 257.954071,146.173294 
	C259.682373,146.631470 261.000000,145.616745 262.500000,146.000000 
"/>
<path fill="none" opacity="1.000000" stroke="#000000" stroke-linecap="round" stroke-linejoin="round" stroke-width="3.000000"
	d="
M23.500000,117.500000 
	C23.135216,122.367134 21.896118,127.015694 20.000000,131.500000 
"/>
<path fill="none" opacity="1.000000" stroke="#000000" stroke-linecap="round" stroke-linejoin="round" stroke-width="2.000000"
	d="
M209.500000,87.500000 
	C206.924927,87.270325 204.655853,89.335602 202.000000,88.500000 
"/>
<path fill="none" opacity="1.000000" stroke="#000000" stroke-linecap="round" stroke-linejoin="round" stroke-width="6.000000"
	d="
M57.000000,267.000000 
	C59.929901,269.512695 62.745544,272.192413 66.500000,273.500000 
"/>
<path fill="none" opacity="1.000000" stroke="#000000" stroke-linecap="round" stroke-linejoin="round" stroke-width="3.000000"
	d="
M116.500000,161.000000 
	C114.000000,161.833344 111.500000,162.666672 109.000000,163.500000 
"/>
<path fill="none" opacity="1.000000" stroke="#000000" stroke-linecap="round" stroke-linejoin="round" stroke-width="3.000000"
	d="
M158.500000,286.500000 
	C158.333328,287.333344 158.195953,288.173767 157.995270,288.998840 
	C156.681366,294.400452 157.539734,295.348480 163.000000,294.500000 
"/>
<path fill="none" opacity="1.000000" stroke="#000000" stroke-linecap="round" stroke-linejoin="round" stroke-width="4.000000"
	d="
M195.000000,204.500000 
	C192.597488,202.870895 190.052109,203.385132 187.500000,204.000000 
"/>
<path fill="none" opacity="1.000000" stroke="#000000" stroke-linecap="round" stroke-linejoin="round" stroke-width="2.000000"
	d="
M165.000000,112.000000 
	C162.728775,114.178886 161.022507,116.772064 159.500000,119.500000 
"/>
<path fill="none" opacity="1.000000" stroke="#000000" stroke-linecap="round" stroke-linejoin="round" stroke-width="2.000000"
	d="
M185.500000,95.000000 
	C184.098175,97.140083 181.468994,99.017166 184.000000,102.000000 
"/>
<path fill="none" opacity="1.000000" stroke="#000000" stroke-linecap="round" stroke-linejoin="round" stroke-width="3.000000"
	d="
M115.500000,156.000000 
	C112.692810,155.242645 110.380112,153.558121 108.000000,152.000000 
"/>
<path fill="none" opacity="1.000000" stroke="#000000" stroke-linecap="round" stroke-linejoin="round" stroke-width="3.000000"
	d="
M161.500000,69.500000 
	C163.225449,71.598900 164.480988,74.128532 167.000000,75.500000 
"/>
<path fill="none" opacity="1.000000" stroke="#000000" stroke-linecap="round" stroke-linejoin="round" stroke-width="2.000000"
	d="
M199.500000,108.000000 
	C202.437164,108.560707 204.191727,110.961014 206.500000,112.500000 
"/>
<path fill="none" opacity="1.000000" stroke="#000000" stroke-linecap="round" stroke-linejoin="round" stroke-width="2.000000"
	d="
M205.500000,74.500000 
	C202.736450,75.564369 200.684418,77.624863 198.500000,79.500000 
"/>
<path fill="none" opacity="1.000000" stroke="#000000" stroke-linecap="round" stroke-linejoin="round" stroke-width="3.000000"
	d="
M127.000000,45.000000 
	C125.650604,47.680504 123.142143,48.686802 120.500000,49.500000 
"/>
<path fill="none" opacity="1.000000" stroke="#000000" stroke-linecap="round" stroke-linejoin="round" stroke-width="3.000000"
	d="
M100.000000,47.000000 
	C97.666664,48.666668 95.333336,50.333332 93.000000,52.000000 
"/>
<path fill="none" opacity="1.000000" stroke="#000000" stroke-linecap="round" stroke-linejoin="round" stroke-width="2.000000"
	d="
M18.000000,204.500000 
	C15.683744,206.444138 16.736183,209.110138 16.500000,211.500000 
"/>
<path fill="none" opacity="1.000000" stroke="#000000" stroke-linecap="round" stroke-linejoin="round" stroke-width="2.000000"
	d="
M178.500000,90.500000 
	C178.718948,91.572662 178.937881,92.645325 179.216278,94.009270 
	C176.221313,91.808861 173.349304,93.040184 170.500000,93.500000 
"/>
<path fill="none" opacity="1.000000" stroke="#000000" stroke-linecap="round" stroke-linejoin="round" stroke-width="8.000000"
	d="
M95.500000,209.500000 
	C94.453354,215.963425 92.168297,222.363327 94.500000,229.000000 
"/>
<path fill="none" opacity="1.000000" stroke="#000000" stroke-linecap="round" stroke-linejoin="round" stroke-width="3.000000"
	d="
M180.500015,273.500000 
	C180.833344,276.833344 181.166672,280.166656 181.500015,283.500000 
"/>
<path fill="none" opacity="1.000000" stroke="#000000" stroke-linecap="round" stroke-linejoin="round" stroke-width="3.000000"
	d="
M198.500000,113.500000 
	C192.065689,110.115921 188.619720,110.498802 184.945984,115.067177 
	C185.786911,116.526726 186.643448,118.013367 187.500000,119.500000 
"/>
<path fill="none" opacity="1.000000" stroke="#000000" stroke-linecap="round" stroke-linejoin="round" stroke-width="3.000000"
	d="
M116.000000,327.500000 
	C117.760399,329.089142 118.995621,331.320160 121.500000,332.000000 
"/>
<path fill="none" opacity="1.000000" stroke="#000000" stroke-linecap="round" stroke-linejoin="round" stroke-width="6.000000"
	d="
M115.000000,186.000000 
	C110.794258,187.054672 108.542366,192.194641 103.500000,191.500000 
"/>
<path fill="none" opacity="1.000000" stroke="#000000" stroke-linecap="round" stroke-linejoin="round" stroke-width="3.000000"
	d="
M172.500000,117.500000 
	C170.425354,119.189240 171.533966,122.102806 170.000000,124.000000 
"/>
<path fill="none" opacity="1.000000" stroke="#000000" stroke-linecap="round" stroke-linejoin="round" stroke-width="3.000000"
	d="
M37.500000,159.000000 
	C39.732040,161.007797 37.499252,163.359039 38.000000,165.500000 
"/>
<path fill="none" opacity="1.000000" stroke="#000000" stroke-linecap="round" stroke-linejoin="round" stroke-width="3.000000"
	d="
M319.000000,163.500000 
	C321.082275,160.796570 323.639923,159.356339 326.978607,161.042389 
	C328.602448,161.862442 330.000000,160.866592 331.500000,161.000000 
"/>
<path fill="none" opacity="1.000000" stroke="#000000" stroke-linecap="round" stroke-linejoin="round" stroke-width="3.000000"
	d="
M155.000000,86.500000 
	C152.833328,86.166664 150.666672,85.833336 148.500000,85.500000 
"/>
<path fill="none" opacity="1.000000" stroke="#000000" stroke-linecap="round" stroke-linejoin="round" stroke-width="5.000000"
	d="
M253.500000,241.500000 
	C252.402924,244.817230 253.613373,247.891571 254.192871,251.733887 
	C251.342896,254.017838 251.184464,259.621002 245.533386,260.678406 
	C243.701660,261.021149 244.211044,260.047333 243.750000,259.500000 
"/>
<path fill="none" opacity="1.000000" stroke="#000000" stroke-linecap="round" stroke-linejoin="round" stroke-width="3.000000"
	d="
M266.000000,71.000000 
	C266.249146,73.856766 267.886139,75.578003 270.500000,76.500000 
"/>
<path fill="none" opacity="1.000000" stroke="#000000" stroke-linecap="round" stroke-linejoin="round" stroke-width="5.000000"
	d="
M119.500000,180.500000 
	C123.289909,182.664200 127.162231,188.230667 127.500000,192.000000 
"/>
<path fill="none" opacity="1.000000" stroke="#000000" stroke-linecap="round" stroke-linejoin="round" stroke-width="5.000000"
	d="
M238.500000,159.500000 
	C236.214050,154.715698 232.801987,156.688126 229.500000,158.000000 
"/>
<path fill="none" opacity="1.000000" stroke="#000000" stroke-linecap="round" stroke-linejoin="round" stroke-width="3.000000"
	d="
M284.500000,208.500000 
	C282.951599,211.535843 281.040710,214.257492 278.000000,216.000000 
"/>
<path fill="none" opacity="1.000000" stroke="#000000" stroke-linecap="round" stroke-linejoin="round" stroke-width="2.000000"
	d="
M152.500000,75.500000 
	C154.412933,76.963936 156.931091,77.520020 158.500000,79.500000 
"/>
<path fill="none" opacity="1.000000" stroke="#000000" stroke-linecap="round" stroke-linejoin="round" stroke-width="3.000000"
	d="
M208.500000,100.000000 
	C206.500000,99.833336 204.500000,99.666672 202.500000,99.500000 
"/>
<path fill="none" opacity="1.000000" stroke="#000000" stroke-linecap="round" stroke-linejoin="round" stroke-width="3.000000"
	d="
M97.500000,41.000000 
	C98.576920,41.256409 99.467964,41.924637 99.460487,42.999725 
	C99.430847,47.261379 102.431786,49.134491 105.500000,51.000000 
"/>
<path fill="none" opacity="1.000000" stroke="#000000" stroke-linecap="round" stroke-linejoin="round" stroke-width="3.000000"
	d="
M235.500000,148.000000 
	C233.500000,146.960556 231.500000,147.162186 229.500000,148.000000 
"/>
<path fill="none" opacity="1.000000" stroke="#000000" stroke-linecap="round" stroke-linejoin="round" stroke-width="5.000000"
	d="
M245.000000,249.500000 
	C243.996368,254.277161 238.988174,252.246567 236.500000,254.500000 
"/>
<path fill="none" opacity="1.000000" stroke="#000000" stroke-linecap="round" stroke-linejoin="round" stroke-width="3.000000"
	d="
M196.000000,78.000000 
	C197.988800,80.103233 200.778152,81.704361 200.960892,85.002167 
	C201.073227,87.029541 202.133972,89.356186 199.985413,90.980705 
	C198.099731,92.406456 199.466599,93.666664 200.000000,95.000000 
"/>
<path fill="none" opacity="1.000000" stroke="#000000" stroke-linecap="round" stroke-linejoin="round" stroke-width="2.000000"
	d="
M129.500000,178.500000 
	C131.271820,179.343353 133.161362,178.891678 135.000000,179.000000 
"/>
<path fill="none" opacity="1.000000" stroke="#000000" stroke-linecap="round" stroke-linejoin="round" stroke-width="3.000000"
	d="
M263.500000,286.000031 
	C261.666687,286.666687 259.833344,287.333374 258.000000,288.000031 
"/>
<path fill="none" opacity="1.000000" stroke="#000000" stroke-linecap="round" stroke-linejoin="round" stroke-width="6.000000"
	d="
M230.500000,167.000000 
	C233.570847,168.539139 237.873505,167.861038 239.385498,171.713593 
	C235.584198,177.042053 233.705246,182.982697 232.000000,189.000000 
"/>
<path fill="none" opacity="1.000000" stroke="#000000" stroke-linecap="round" stroke-linejoin="round" stroke-width="3.000000"
	d="
M224.500000,332.000000 
	C223.519287,334.563141 220.402206,333.209595 219.000000,335.000000 
"/>
<path fill="none" opacity="1.000000" stroke="#000000" stroke-linecap="round" stroke-linejoin="round" stroke-width="3.000000"
	d="
M201.000000,243.500000 
	C200.242615,246.312759 200.609558,250.082230 195.396088,247.730347 
	C193.908157,247.059113 191.166672,249.166672 189.000000,250.000000 
"/>
<path fill="none" opacity="1.000000" stroke="#000000" stroke-linecap="round" stroke-linejoin="round" stroke-width="2.000000"
	d="
M147.500000,236.500015 
	C145.833328,236.833344 144.166672,237.166672 142.500000,237.500015 
"/>
<path fill="none" opacity="1.000000" stroke="#000000" stroke-linecap="round" stroke-linejoin="round" stroke-width="2.000000"
	d="
M178.500000,118.000000 
	C181.215240,118.334885 181.215240,118.334885 183.500000,123.500000 
"/>
<path fill="none" opacity="1.000000" stroke="#000000" stroke-linecap="round" stroke-linejoin="round" stroke-width="3.000000"
	d="
M155.500000,83.000000 
	C154.961792,86.039162 156.928223,88.939171 156.000000,92.000000 
"/>
<path fill="none" opacity="1.000000" stroke="#000000" stroke-linecap="round" stroke-linejoin="round" stroke-width="2.000000"
	d="
M256.500000,138.500000 
	C254.732605,138.329727 253.046204,138.564377 251.500000,139.500000 
"/>
<path fill="none" opacity="1.000000" stroke="#000000" stroke-linecap="round" stroke-linejoin="round" stroke-width="5.000000"
	d="
M127.000000,156.750000 
	C123.837646,157.199478 120.918793,159.499466 117.500000,158.000000 
"/>
<path fill="none" opacity="1.000000" stroke="#000000" stroke-linecap="round" stroke-linejoin="round" stroke-width="2.000000"
	d="
M192.500000,162.500000 
	C192.399307,163.183167 192.867432,164.102325 191.991638,164.480621 
	C189.173553,165.697906 189.962280,167.559128 191.000000,169.500000 
"/>
<path fill="none" opacity="1.000000" stroke="#000000" stroke-linecap="round" stroke-linejoin="round" stroke-width="2.000000"
	d="
M178.500000,73.500000 
	C178.666672,75.000000 178.833328,76.500000 179.000000,78.000000 
"/>
<path fill="none" opacity="1.000000" stroke="#000000" stroke-linecap="round" stroke-linejoin="round" stroke-width="4.000000"
	d="
M311.500000,179.000000 
	C314.352264,180.386337 317.329987,181.020065 320.500000,180.500000 
"/>
<path fill="none" opacity="1.000000" stroke="#000000" stroke-linecap="round" stroke-linejoin="round" stroke-width="1.000000"
	d="
M121.500000,170.000000 
	C119.917503,170.037903 118.382721,169.861099 117.000000,169.000000 
"/>
<path fill="none" opacity="1.000000" stroke="#000000" stroke-linecap="round" stroke-linejoin="round" stroke-width="3.000000"
	d="
M174.500000,69.500000 
	C179.937057,69.391617 184.396637,70.900940 188.131470,75.390633 
	C191.051376,78.900696 194.828140,78.154549 198.500000,74.500000 
"/>
<path fill="none" opacity="1.000000" stroke="#000000" stroke-linecap="round" stroke-linejoin="round" stroke-width="3.000000"
	d="
M156.000000,101.500000 
	C157.500000,104.000000 159.000000,106.500000 160.500000,109.000000 
"/>
<path fill="none" opacity="1.000000" stroke="#000000" stroke-linecap="round" stroke-linejoin="round" stroke-width="3.000000"
	d="
M172.500000,172.500000 
	C178.709641,175.183548 185.111145,174.221558 191.500000,173.500000 
"/>
<path fill="none" opacity="1.000000" stroke="#000000" stroke-linecap="round" stroke-linejoin="round" stroke-width="6.000000"
	d="
M255.500000,177.500000 
	C251.851669,174.651337 250.561829,178.406464 248.258255,180.110367 
	C246.947311,179.537643 245.473648,178.893814 244.000000,178.250000 
"/>
<path fill="none" opacity="1.000000" stroke="#000000" stroke-linecap="round" stroke-linejoin="round" stroke-width="3.000000"
	d="
M192.000000,170.000000 
	C193.589844,171.415359 190.704498,173.809555 193.009857,174.980591 
	C197.811661,177.419708 196.066711,180.162491 193.500000,183.000000 
"/>
<path fill="none" opacity="1.000000" stroke="#000000" stroke-linecap="round" stroke-linejoin="round" stroke-width="2.000000"
	d="
M202.000000,103.500000 
	C203.166672,103.833336 204.333328,104.166672 205.500000,104.500000 
"/>
<path fill="none" opacity="1.000000" stroke="#000000" stroke-linecap="round" stroke-linejoin="round" stroke-width="2.000000"
	d="
M179.500000,106.500000 
	C177.175705,107.097816 179.396576,108.994255 178.563019,110.159470 
	C179.542007,109.772980 180.521011,109.386497 181.500000,109.000008 
"/>
<path fill="none" opacity="1.000000" stroke="#000000" stroke-linecap="round" stroke-linejoin="round" stroke-width="2.000000"
	d="
M165.500000,97.500000 
	C165.500000,98.666664 165.500000,99.833336 165.500000,101.000000 
"/>
<path fill="none" opacity="1.000000" stroke="#000000" stroke-linecap="round" stroke-linejoin="round" stroke-width="2.000000"
	d="
M178.500000,65.500000 
	C178.166458,66.666664 179.472443,67.833336 178.500000,69.000000 
"/>
<path fill="none" opacity="1.000000" stroke="#000000" stroke-linecap="round" stroke-linejoin="round" stroke-width="2.000000"
	d="
M161.000000,77.500000 
	C160.342270,78.842270 158.563324,78.905602 157.944122,80.477997 
	C156.771133,83.456673 154.598053,82.622658 152.500000,81.500000 
"/>
<path fill="none" opacity="1.000000" stroke="#000000" stroke-linecap="round" stroke-linejoin="round" stroke-width="3.000000"
	d="
M195.500000,84.500008 
	C194.521011,84.886490 193.542007,85.272980 192.660431,85.621010 
	C191.170425,84.500000 192.496735,83.500000 192.500000,82.500000 
"/>
<path fill="none" opacity="1.000000" stroke="#000000" stroke-linecap="round" stroke-linejoin="round" stroke-width="3.000000"
	d="
M195.500000,100.500000 
	C193.166672,101.861130 190.833328,101.861130 188.500000,100.500000 
"/>
<path fill="none" opacity="1.000000" stroke="#000000" stroke-linecap="round" stroke-linejoin="round" stroke-width="3.000000"
	d="
M170.500015,90.499992 
	C171.166687,92.499992 171.833344,94.499992 172.500015,96.499992 
"/>
<path fill="none" opacity="1.000000" stroke="#000000" stroke-linecap="round" stroke-linejoin="round" stroke-width="3.000000"
	d="
M183.500000,92.500000 
	C185.432297,93.479027 187.369736,94.396492 189.500000,93.000000 
"/>
<path fill="none" opacity="1.000000" stroke="#000000" stroke-linecap="round" stroke-linejoin="round" stroke-width="2.000000"
	d="
M165.000000,86.000000 
	C165.298920,83.475258 167.299194,84.920341 168.500000,84.500000 
"/>
<path fill="none" opacity="1.000000" stroke="#000000" stroke-linecap="round" stroke-linejoin="round" stroke-width="2.000000"
	d="
M171.500000,84.500000 
	C172.364136,85.705910 174.427231,84.114258 175.000000,86.000000 
"/>
<path fill="none" opacity="1.000000" stroke="#000000" stroke-linecap="round" stroke-linejoin="round" stroke-width="2.000000"
	d="
M182.500000,267.500000 
	C180.872620,267.825897 181.573608,265.241333 179.965302,265.502625 
	C178.985657,266.358734 179.731644,267.510834 179.500000,268.500000 
"/>
</svg>